<svg width="556" height="800" viewBox="0 0 556 800" fill="none" xmlns="http://www.w3.org/2000/svg">
<path d="M277.988 0C124.91 0 0.374512 124.554 0.374512 277.636C0.374512 424.99 252.258 769.262 262.983 783.841L272.992 797.463C274.163 799.064 276.027 800 277.988 800C279.979 800 281.831 799.064 283.014 797.463L293.017 783.841C303.748 769.262 555.626 424.99 555.626 277.636C555.626 124.554 431.07 0 277.988 0ZM277.988 178.187C332.836 178.187 377.436 222.789 377.436 277.636C377.436 332.454 332.834 377.084 277.988 377.084C223.172 377.084 178.539 332.454 178.539 277.636C178.539 222.789 223.17 178.187 277.988 178.187Z" fill="#0C62FB"/>
</svg>
